<svg width="150" height="150" viewBox="0 0 150 150" fill="none" xmlns="http://www.w3.org/2000/svg">
<path fill-rule="evenodd" clip-rule="evenodd" d="M48.3881 36.6099L36.4171 41.4532C33.4406 42.6573 31.0165 45.1251 29.6778 48.3139C28.3392 51.5027 28.1956 55.1515 29.2786 58.4579L49.7082 120.804C50.245 122.442 51.067 123.946 52.1273 125.231C53.1876 126.515 54.4654 127.556 55.8877 128.292C57.3099 129.028 58.8489 129.446 60.4166 129.522C61.9843 129.597 63.5501 129.329 65.0245 128.732L98.2853 114.149M67.4736 53.6278H97.3414ZM67.4736 66.8972H103.315ZM67.4736 80.1665H85.3943Z" fill="#BBDEFB"/>
<path d="M48.3881 36.6099L36.4171 41.4532C33.4406 42.6573 31.0165 45.1251 29.6778 48.3139C28.3392 51.5027 28.1956 55.1515 29.2786 58.4579L49.7082 120.804C50.245 122.442 51.067 123.946 52.1273 125.231C53.1876 126.515 54.4654 127.556 55.8877 128.292C57.3099 129.028 58.8489 129.446 60.4166 129.522C61.9843 129.597 63.5501 129.329 65.0245 128.732L98.2853 114.149M67.4736 53.6278H97.3414M67.4736 66.8972H103.315M67.4736 80.1665H85.3943" stroke="#37474F" stroke-width="7" stroke-linecap="round" stroke-linejoin="round"/>
<path fill-rule="evenodd" clip-rule="evenodd" d="M121.236 100.071V33.7239C121.236 30.2046 119.977 26.8295 117.736 24.341C115.496 21.8526 112.457 20.4545 109.289 20.4545H61.5C58.3315 20.4545 55.2927 21.8526 53.0521 24.341C50.8116 26.8295 49.5529 30.2046 49.5529 33.7239V100.071C49.5529 103.59 50.8116 106.965 53.0521 109.453C55.2927 111.942 58.3315 113.34 61.5 113.34H109.289C112.457 113.34 115.496 111.942 117.736 109.453C119.977 106.965 121.236 103.59 121.236 100.071Z" fill="#BBDEFB" stroke="#37474F" stroke-width="7" stroke-linecap="round" stroke-linejoin="round"/>
<rect x="64.5908" y="48.0237" width="36.032" height="5.92885" rx="2.96443" fill="#37474F"/>
<rect x="64.5908" y="80.0395" width="23.4875" height="5.92885" rx="2.96443" fill="#37474F"/>
<rect x="64.5908" y="64.0316" width="41.637" height="5.92885" rx="2.96443" fill="#37474F"/>
</svg>
