<svg width="550" height="541" viewBox="0 0 550 541" fill="none" xmlns="http://www.w3.org/2000/svg">
<circle cx="116.381" cy="424.619" r="86.3813" fill="#FFE7AA"/>
<circle cx="291.479" cy="259.794" r="222.794" fill="#F7E9DF" stroke="#F7E9DF" stroke-width="12"/>
<rect x="139.261" y="101.973" width="303.502" height="178.366" fill="#BBDEFB"/>
<path d="M437.727 88.8988H136.826C130.425 88.8988 125.253 94.0682 125.253 100.467V279.766C125.253 286.165 130.425 291.334 136.826 291.334H274.257V331.821H212.051C208.869 331.821 206.265 334.424 206.265 337.605V354.956C206.265 356.547 207.567 357.848 209.158 357.848H365.395C366.986 357.848 368.288 356.547 368.288 354.956V337.605C368.288 334.424 365.684 331.821 362.501 331.821H300.296V291.334H437.727C444.128 291.334 449.3 286.165 449.3 279.766V100.467C449.3 94.0682 444.128 88.8988 437.727 88.8988ZM423.26 265.307H151.292V114.926H423.26V265.307Z" fill="#37474F"/>
<g clip-path="url(#clip0_109_43)">
<circle cx="342.84" cy="189.755" r="11.5078" fill="#FFC700" stroke="#375C7A" stroke-width="5"/>
<ellipse cx="281.673" cy="166.876" rx="11.6732" ry="10.7393" fill="#FFC700"/>
<path d="M325.882 214.716C317.075 229.534 301.379 238.617 284.008 238.617C257.068 238.617 235.146 216.695 235.146 189.755C235.146 162.815 257.068 140.893 284.008 140.893C301.379 140.893 317.075 149.976 325.882 164.794L287.858 187.611L284.285 189.755L287.858 191.899L325.882 214.716ZM288.657 159.43C286.743 157.515 284.148 156.439 281.44 156.438C278.733 156.437 276.137 157.511 274.222 159.425C272.307 161.338 271.231 163.934 271.23 166.641C271.229 169.348 272.304 171.945 274.217 173.86C276.131 175.774 278.727 176.851 281.434 176.851C284.141 176.852 286.737 175.778 288.652 173.864C290.567 171.951 291.643 169.355 291.644 166.648C291.645 163.941 290.57 161.344 288.657 159.43Z" fill="#FFC700" stroke="#375C7A" stroke-width="5"/>
</g>
<g clip-path="url(#clip1_109_43)">
<path d="M447.509 370.386C447.66 370.945 447.921 371.47 448.275 371.929C448.629 372.388 449.071 372.773 449.574 373.061C450.077 373.35 450.632 373.536 451.207 373.61C451.783 373.683 452.367 373.643 452.927 373.491L467.763 369.469C468.322 369.318 468.847 369.058 469.306 368.704C469.764 368.351 470.149 367.91 470.438 367.407C470.726 366.905 470.913 366.351 470.987 365.776C471.061 365.201 471.021 364.618 470.87 364.058L468.178 354.102C467.871 352.971 467.128 352.009 466.111 351.426C465.095 350.843 463.889 350.687 462.758 350.993L447.921 355.015C446.792 355.323 445.83 356.067 445.248 357.082C444.665 358.098 444.51 359.303 444.814 360.433L447.509 370.386ZM417.654 370.657C417.345 371.786 416.602 372.745 415.588 373.327C414.573 373.908 413.369 374.063 412.24 373.758L397.405 369.736C396.845 369.586 396.321 369.327 395.861 368.973C395.402 368.62 395.017 368.179 394.728 367.676C394.439 367.174 394.252 366.619 394.178 366.045C394.103 365.47 394.143 364.886 394.294 364.326L396.989 354.372C397.296 353.242 398.039 352.279 399.056 351.697C400.072 351.115 401.278 350.96 402.409 351.267L417.241 355.289C417.801 355.44 418.326 355.7 418.785 356.054C419.244 356.408 419.629 356.849 419.918 357.352C420.207 357.855 420.394 358.409 420.468 358.984C420.543 359.559 420.503 360.143 420.352 360.703L417.654 370.657" fill="#405866"/>
<path d="M429.444 359.108C430.521 362.025 431.847 365.892 432.572 369.932C433.343 374.288 431.718 376.685 428.662 379.364C427.766 380.14 427.461 381.288 427.856 382.365C428.273 383.466 429.35 384.237 430.48 384.237C431.131 384.237 431.755 383.994 432.285 383.529C434.891 381.259 436.839 379.139 437.867 376.159C439.091 372.638 438.092 368.528 437.353 365.527C436.528 362.179 435.327 358.904 434.158 355.731L433.833 354.861C432.093 350.133 431.679 346.573 434.657 342.347C435.261 341.477 435.349 340.466 434.889 339.569C433.994 337.846 431.27 337.545 430.093 339.219C428.392 341.628 426.664 344.656 426.732 348.813C426.795 352.045 427.934 355.07 429.037 357.999L429.454 359.104" fill="#354A54"/>
<path d="M430.032 382.467C429.632 381.396 429.941 380.246 430.832 379.468C433.894 376.793 435.521 374.392 434.743 370.04C434.025 366 432.696 362.14 431.62 359.215L431.204 358.107C430.109 355.18 428.963 352.155 428.904 348.923C428.83 344.758 430.558 341.735 432.263 339.328C432.533 338.935 432.893 338.66 433.286 338.474C432.117 337.962 430.607 338.187 429.808 339.328C428.105 341.733 426.384 344.758 426.447 348.923C426.513 352.155 427.643 355.18 428.752 358.107L429.16 359.215C430.246 362.133 431.573 366 432.293 370.04C433.063 374.392 431.438 376.793 428.382 379.468C427.483 380.246 427.178 381.396 427.583 382.467C427.989 383.572 429.067 384.344 430.195 384.344C430.617 384.344 431.03 384.225 431.419 384.024C430.779 383.695 430.284 383.14 430.031 382.467" fill="#405866"/>
<path d="M381.607 370.462C398 343.518 422.706 362.262 422.706 362.262C424.307 363.47 427.262 364.467 429.262 364.475L435.886 364.479C437.894 364.479 440.851 363.486 442.448 362.269C442.448 362.269 467.153 343.53 483.548 370.466C499.954 397.399 493.344 426.73 493.344 426.73C492.18 433.914 488.367 438.706 481.166 438.098C473.987 437.498 458.405 418.764 458.405 418.764C457.122 417.218 454.426 415.955 452.414 415.955L412.75 415.945C410.75 415.945 408.055 417.208 406.769 418.747C406.769 418.747 391.176 437.498 383.996 438.096C376.797 438.698 372.978 433.896 371.83 426.72C371.83 426.724 365.212 397.394 381.607 370.462" fill="#354A54"/>
<path d="M390.398 426.615C390.398 426.615 383.779 397.286 400.172 370.354C404.274 363.617 408.894 359.733 413.52 357.702C404.835 354.673 391.543 353.891 381.423 370.519C365.036 397.46 371.647 426.783 371.647 426.783C372.798 433.967 376.623 438.761 383.812 438.153C386.135 437.967 389.336 435.867 392.605 433.132C391.526 431.333 390.798 429.123 390.4 426.615M447.833 364.358H454.454C456.456 364.365 459.41 363.368 461.01 362.158C461.01 362.158 464.433 359.563 469.576 357.69C455.869 352.014 442.265 362.328 442.265 362.328C442.149 362.412 442.032 362.498 441.907 362.578C443.575 363.589 446.068 364.356 447.831 364.356M476.962 418.657C475.686 417.11 472.989 415.845 470.981 415.845L431.317 415.841C430.848 415.849 430.381 415.909 429.925 416.019H452.234C454.239 416.019 456.941 417.282 458.219 418.829C458.219 418.829 473.805 437.57 480.984 438.17C485.777 438.571 489.065 436.579 491.074 433.081C484.195 427.346 476.962 418.657 476.962 418.657" fill="#405866"/>
<path d="M416.375 384.125C416.329 383.532 416.31 382.937 416.318 382.342C416.315 382.245 416.339 382.149 416.387 382.064C416.169 381.638 415.895 381.244 415.571 380.891C415.502 380.822 415.452 380.737 415.425 380.643C415.398 380.55 415.395 380.451 415.417 380.355H407.189V372.079H398.301V380.355H391.162V389.381H398.301V396.078H407.189V389.381H415.89C415.941 387.74 416.34 386.1 416.537 384.465C416.443 384.376 416.385 384.255 416.375 384.125Z" fill="#A2ABAF"/>
<path d="M407.228 371.856C407.228 370.579 406.196 369.543 404.923 369.543H400.62C399.347 369.543 398.307 370.579 398.307 371.856C398.307 373.129 399.345 374.165 400.62 374.165H404.923C405.226 374.165 405.526 374.105 405.806 373.989C406.086 373.873 406.34 373.702 406.554 373.488C406.768 373.274 406.938 373.019 407.053 372.739C407.169 372.459 407.229 372.159 407.228 371.856" fill="#A2ABAF"/>
<path d="M391.162 389.25V380.363H398.232V373.979H407.258V380.363H415.538V389.25H407.258V396.085H398.232V389.25H391.162Z" fill="#A2ABAF"/>
<path d="M415.763 389.269C417.038 389.269 418.072 388.235 418.072 386.958V382.659C418.048 382.063 417.794 381.499 417.363 381.086C416.933 380.673 416.36 380.443 415.763 380.443C415.167 380.443 414.593 380.673 414.163 381.086C413.732 381.499 413.478 382.063 413.454 382.659V386.958C413.453 387.262 413.513 387.562 413.629 387.843C413.744 388.123 413.914 388.378 414.129 388.593C414.343 388.808 414.598 388.978 414.879 389.094C415.159 389.21 415.46 389.27 415.763 389.269" fill="#A2ABAF"/>
<path d="M389.111 385.613C389.172 386.209 389.172 386.798 389.172 387.394C389.175 387.49 389.15 387.585 389.101 387.668C389.312 388.081 389.58 388.476 389.911 388.845C390.065 389.013 390.114 389.207 390.069 389.377H398.295V397.656H407.189V389.377H414.324V380.354H407.189V373.663H398.295V380.354H389.594C389.549 381.996 389.148 383.634 388.953 385.267C389.045 385.36 389.101 385.483 389.111 385.613" fill="#A2ABAF"/>
<path d="M398.26 397.878C398.26 399.155 399.3 400.193 400.582 400.193H404.876C406.151 400.193 407.189 399.155 407.189 397.878C407.189 396.609 406.151 395.567 404.876 395.567H400.582C399.3 395.567 398.26 396.609 398.26 397.878" fill="#A2ABAF"/>
<path d="M414.324 380.488V389.375H407.254V395.763H398.224V389.375H389.948V380.488H398.224V373.663H407.254V380.488H414.324" fill="#A2ABAF"/>
<path d="M389.725 380.461C389.422 380.461 389.122 380.521 388.842 380.637C388.561 380.753 388.307 380.923 388.093 381.137C387.879 381.352 387.709 381.607 387.593 381.887C387.477 382.167 387.417 382.467 387.418 382.77V387.068C387.418 387.68 387.661 388.268 388.094 388.701C388.527 389.134 389.114 389.377 389.727 389.377C390.339 389.377 390.927 389.134 391.36 388.701C391.793 388.268 392.036 387.68 392.036 387.068V382.77C392.036 382.467 391.977 382.166 391.861 381.886C391.745 381.605 391.574 381.351 391.36 381.136C391.145 380.922 390.89 380.752 390.61 380.636C390.329 380.52 390.028 380.461 389.725 380.461" fill="#A2ABAF"/>
<path d="M415.284 383.325C415.233 382.733 415.21 382.139 415.215 381.544C415.215 381.437 415.247 381.347 415.284 381.271C415.068 380.844 414.795 380.45 414.472 380.097C414.406 380.027 414.357 379.942 414.33 379.849C414.303 379.756 414.299 379.658 414.318 379.564H406.1V371.287H397.212V379.564H390.063V388.593H397.212V395.28H406.1V388.593H414.793C414.844 386.945 415.247 385.304 415.44 383.672C415.347 383.579 415.292 383.456 415.284 383.325" fill="#CBD5DC"/>
<path d="M406.12 371.064C406.12 369.791 405.083 368.755 403.811 368.755H399.509C399.206 368.755 398.906 368.815 398.626 368.931C398.346 369.048 398.092 369.218 397.878 369.432C397.664 369.647 397.494 369.901 397.379 370.181C397.263 370.461 397.203 370.761 397.204 371.064C397.203 371.367 397.262 371.668 397.378 371.948C397.494 372.228 397.663 372.483 397.877 372.697C398.092 372.912 398.346 373.082 398.626 373.199C398.906 373.315 399.206 373.375 399.509 373.375H403.811C405.083 373.375 406.12 372.341 406.12 371.064Z" fill="#CBD5DC"/>
<path d="M390.055 388.46V379.569H397.131V373.189H406.155V379.569H414.435V388.46H406.155V395.286H397.131V388.46H390.055" fill="#CBD5DC"/>
<path d="M414.654 388.489C415.941 388.489 416.971 387.451 416.971 386.174V381.877C416.972 381.573 416.912 381.272 416.795 380.991C416.679 380.71 416.508 380.455 416.293 380.24C416.078 380.026 415.822 379.856 415.541 379.74C415.26 379.625 414.958 379.566 414.654 379.567C413.385 379.567 412.345 380.598 412.345 381.877V386.174C412.345 387.451 413.385 388.489 414.654 388.489Z" fill="#CBD5DC"/>
<path d="M388.012 384.823C388.063 385.416 388.067 386.014 388.067 386.603C388.066 386.699 388.046 386.795 388.008 386.884C388.214 387.297 388.477 387.686 388.808 388.055C388.964 388.223 389.009 388.417 388.966 388.591H397.192V396.864H406.081V388.591H413.219V379.566H406.081V372.871H397.192V379.566H388.501C388.452 381.208 388.041 382.848 387.856 384.479C387.945 384.573 388 384.694 388.012 384.823" fill="#CBD5DC"/>
<path d="M397.167 397.09C397.165 397.395 397.224 397.696 397.339 397.977C397.454 398.259 397.624 398.515 397.839 398.73C398.054 398.946 398.309 399.117 398.59 399.233C398.87 399.35 399.172 399.41 399.476 399.409H403.773C404.375 399.392 404.945 399.141 405.364 398.71C405.783 398.278 406.017 397.701 406.017 397.099C406.017 396.498 405.783 395.92 405.364 395.489C404.945 395.058 404.375 394.807 403.773 394.789H399.476C398.197 394.789 397.167 395.82 397.167 397.09" fill="#CBD5DC"/>
<path d="M413.211 379.689V388.579H406.147V394.959H397.118V388.579H388.845V379.689H397.118V372.859H406.147V379.689H413.211Z" fill="#CBD5DC"/>
<path d="M388.622 379.669C387.349 379.669 386.307 380.703 386.307 381.986V386.28C386.325 386.881 386.576 387.452 387.008 387.872C387.439 388.291 388.017 388.526 388.619 388.526C389.221 388.526 389.799 388.291 390.231 387.872C390.663 387.452 390.914 386.881 390.931 386.28V381.986C390.931 380.705 389.899 379.669 388.622 379.669Z" fill="#CBD5DC"/>
<path d="M476.64 373.608C476.64 375.028 476.076 376.39 475.072 377.394C474.067 378.398 472.705 378.962 471.285 378.962C469.865 378.962 468.503 378.398 467.499 377.394C466.495 376.39 465.931 375.028 465.931 373.608C465.932 372.187 466.497 370.825 467.501 369.821C468.506 368.816 469.868 368.252 471.288 368.25C471.992 368.25 472.688 368.389 473.338 368.658C473.987 368.928 474.577 369.322 475.074 369.82C475.571 370.318 475.966 370.908 476.234 371.558C476.503 372.208 476.641 372.905 476.64 373.608" fill="#FAAA33"/>
<path d="M456.696 383.112C459.656 383.112 462.056 380.713 462.056 377.753C462.056 374.793 459.656 372.394 456.696 372.394C453.736 372.394 451.337 374.793 451.337 377.753C451.337 380.713 453.736 383.112 456.696 383.112Z" fill="#FAAA33"/>
<path d="M481.997 387.74C481.995 389.162 481.429 390.525 480.422 391.53C479.416 392.534 478.052 393.098 476.63 393.098C475.227 393.071 473.891 392.495 472.908 391.493C471.925 390.492 471.375 389.145 471.375 387.741C471.375 386.338 471.925 384.991 472.908 383.99C473.891 382.988 475.227 382.412 476.63 382.385C477.334 382.384 478.031 382.522 478.682 382.791C479.333 383.06 479.924 383.454 480.423 383.951C480.921 384.448 481.317 385.039 481.587 385.689C481.857 386.339 481.996 387.036 481.997 387.74M467.403 391.878C467.365 393.273 466.785 394.599 465.784 395.572C464.784 396.546 463.444 397.09 462.048 397.09C460.652 397.09 459.311 396.546 458.311 395.572C457.311 394.599 456.73 393.273 456.692 391.878C456.692 391.174 456.829 390.476 457.098 389.826C457.367 389.175 457.761 388.583 458.258 388.085C458.756 387.587 459.346 387.191 459.997 386.921C460.647 386.651 461.344 386.511 462.048 386.511C462.752 386.511 463.449 386.651 464.099 386.921C464.749 387.191 465.34 387.587 465.837 388.085C466.334 388.583 466.729 389.175 466.997 389.826C467.266 390.476 467.404 391.174 467.403 391.878" fill="#FAAA33"/>
</g>
<path d="M116.148 445.163V349.911C116.148 343.362 121.506 338.004 128.054 338.004H175.681C182.23 338.004 187.588 343.362 187.588 349.911V445.163C187.588 451.712 182.23 457.07 175.681 457.07H128.054C121.506 457.07 116.148 451.712 116.148 445.163Z" fill="#37474F"/>
<path d="M175.681 346.934H128.054C126.268 346.934 125.078 348.125 125.078 349.911V436.233C125.078 438.019 126.268 439.21 128.054 439.21H175.681C177.467 439.21 178.658 438.019 178.658 436.233V349.911C178.658 348.125 177.467 346.934 175.681 346.934Z" fill="#BBDEFB"/>
<path d="M142.938 445.163H160.798V451.117H142.938V445.163Z" fill="#78909C"/>
<g clip-path="url(#clip2_109_43)">
<path d="M170.159 392.72C170.159 394.606 168.628 396.137 166.736 396.137C164.843 396.137 163.312 394.606 163.312 392.72C163.312 390.835 164.843 389.304 166.736 389.304C168.628 389.304 170.159 390.835 170.159 392.72Z" fill="#FFC700" stroke="#375C7A" stroke-width="2"/>
<ellipse cx="147.42" cy="385.506" rx="3.68626" ry="3.38627" fill="#FFC700"/>
<path d="M161.09 400.664C158.327 405.165 153.496 407.916 148.157 407.916C139.764 407.916 132.937 401.097 132.937 392.72C132.937 384.344 139.764 377.525 148.157 377.525C153.496 377.525 158.327 380.276 161.09 384.777L149.265 391.863L147.833 392.72L149.265 393.578L161.09 400.664ZM149.773 383.008C149.129 382.365 148.256 382.004 147.346 382.003C146.436 382.003 145.563 382.364 144.918 383.007C144.274 383.65 143.912 384.522 143.911 385.432C143.911 386.343 144.273 387.215 144.917 387.859C145.561 388.502 146.434 388.863 147.344 388.864C148.254 388.864 149.127 388.503 149.772 387.86C150.416 387.217 150.778 386.345 150.779 385.435C150.779 384.524 150.417 383.652 149.773 383.008Z" fill="#FFC700" stroke="#375C7A" stroke-width="2"/>
</g>
<defs>
<clipPath id="clip0_109_43">
<rect width="141.946" height="103.658" fill="white" transform="translate(223.307 138.393)"/>
</clipPath>
<clipPath id="clip1_109_43">
<rect width="125.136" height="125.136" fill="white" transform="translate(369.922 338.237)"/>
</clipPath>
<clipPath id="clip2_109_43">
<rect width="44.8249" height="32.6848" fill="white" transform="translate(128.988 376.525)"/>
</clipPath>
</defs>
</svg>
