<svg width="627" height="617" viewBox="0 0 627 617" fill="none" xmlns="http://www.w3.org/2000/svg">
<circle cx="129.5" cy="464.5" r="92.5" fill="#FFE7AA"/>
<circle cx="317" cy="288" r="239" fill="#F7E9DF" stroke="#F7E9DF" stroke-width="12"/>
<rect x="154" y="119" width="325" height="191" fill="#BBDEFB"/>
<path d="M473.607 105H151.393C144.538 105 139 110.535 139 117.387V309.387C139 316.239 144.538 321.774 151.393 321.774H298.558V365.129H231.946C228.538 365.129 225.75 367.916 225.75 371.323V389.903C225.75 391.606 227.144 393 228.848 393H396.152C397.856 393 399.25 391.606 399.25 389.903V371.323C399.25 367.916 396.462 365.129 393.054 365.129H326.442V321.774H473.607C480.462 321.774 486 316.239 486 309.387V117.387C486 110.535 480.462 105 473.607 105ZM458.116 293.903H166.884V132.871H458.116V293.903Z" fill="#37474F"/>
<circle cx="372" cy="213" r="12.5" fill="#FFC700" stroke="black" stroke-width="5"/>
<ellipse cx="306.5" cy="188.5" rx="12.5" ry="11.5" fill="#FFC700"/>
<path d="M354.082 239.668C344.637 255.678 327.725 265.5 309 265.5C280.054 265.5 256.5 241.946 256.5 213C256.5 184.054 280.054 160.5 309 160.5C327.725 160.5 344.637 170.322 354.082 186.332L313.214 210.856L309.641 213L313.214 215.144L354.082 239.668ZM313.853 180.652C311.837 178.635 309.103 177.501 306.251 177.5C303.399 177.499 300.664 178.631 298.646 180.647C296.629 182.663 295.495 185.397 295.494 188.249C295.494 191.101 296.626 193.836 298.641 195.854C300.657 197.871 303.392 199.005 306.244 199.006C309.095 199.006 311.831 197.874 313.848 195.859C315.865 193.843 316.999 191.108 317 188.256C317.001 185.405 315.869 182.669 313.853 180.652Z" fill="#FFC700" stroke="black" stroke-width="5"/>
<g clip-path="url(#clip0_109_43)">
<path d="M484.082 406.425C484.244 407.025 484.523 407.586 484.903 408.078C485.282 408.57 485.755 408.982 486.294 409.29C486.833 409.599 487.427 409.799 488.043 409.878C488.659 409.957 489.285 409.913 489.884 409.75L505.771 405.443C506.37 405.282 506.932 405.004 507.423 404.625C507.915 404.246 508.327 403.774 508.636 403.236C508.945 402.698 509.144 402.105 509.224 401.489C509.303 400.874 509.261 400.249 509.098 399.65L506.215 388.989C505.887 387.778 505.091 386.747 504.003 386.122C502.914 385.498 501.622 385.332 500.411 385.66L484.524 389.966C483.314 390.296 482.285 391.092 481.661 392.18C481.038 393.267 480.871 394.558 481.197 395.768L484.082 406.425ZM452.113 406.716C451.782 407.925 450.987 408.952 449.9 409.575C448.813 410.197 447.524 410.364 446.315 410.037L430.43 405.73C429.83 405.569 429.269 405.291 428.777 404.913C428.285 404.534 427.872 404.062 427.563 403.524C427.253 402.986 427.053 402.392 426.974 401.777C426.894 401.161 426.936 400.536 427.099 399.937L429.984 389.278C430.313 388.067 431.109 387.037 432.197 386.413C433.286 385.79 434.577 385.624 435.788 385.953L451.671 390.26C452.27 390.421 452.832 390.7 453.324 391.079C453.816 391.458 454.228 391.93 454.537 392.468C454.847 393.007 455.047 393.601 455.127 394.217C455.206 394.832 455.164 395.458 455.002 396.057L452.113 406.716" fill="#405866"/>
<path d="M464.738 394.349C465.892 397.473 467.311 401.614 468.088 405.94C468.913 410.605 467.173 413.172 463.9 416.04C462.941 416.871 462.615 418.1 463.038 419.254C463.484 420.433 464.637 421.258 465.848 421.258C466.545 421.258 467.213 420.998 467.78 420.5C470.571 418.069 472.656 415.799 473.758 412.608C475.068 408.837 473.999 404.436 473.207 401.222C472.324 397.638 471.038 394.131 469.786 390.733L469.438 389.801C467.575 384.738 467.131 380.926 470.32 376.401C470.967 375.469 471.061 374.387 470.569 373.426C469.61 371.581 466.693 371.259 465.433 373.051C463.611 375.631 461.761 378.874 461.834 383.325C461.901 386.786 463.122 390.025 464.302 393.162L464.748 394.345" fill="#354A54"/>
<path d="M465.368 419.363C464.939 418.215 465.27 416.984 466.224 416.151C469.503 413.287 471.245 410.716 470.412 406.055C469.644 401.729 468.22 397.596 467.068 394.464L466.622 393.277C465.45 390.142 464.223 386.903 464.16 383.442C464.08 378.983 465.931 375.746 467.757 373.168C468.046 372.747 468.431 372.452 468.852 372.253C467.6 371.705 465.984 371.946 465.127 373.168C463.304 375.744 461.461 378.983 461.528 383.442C461.599 386.903 462.81 390.142 463.997 393.277L464.434 394.464C465.596 397.588 467.018 401.729 467.789 406.055C468.613 410.716 466.874 413.287 463.601 416.151C462.638 416.984 462.311 418.215 462.745 419.363C463.18 420.546 464.334 421.373 465.542 421.373C465.994 421.373 466.436 421.245 466.853 421.029C466.167 420.678 465.637 420.084 465.366 419.363" fill="#405866"/>
<path d="M413.512 406.507C431.066 377.655 457.523 397.726 457.523 397.726C459.238 399.02 462.401 400.088 464.543 400.096L471.637 400.1C473.787 400.1 476.953 399.037 478.663 397.734C478.663 397.734 505.118 377.668 522.674 406.511C540.243 435.353 533.164 466.761 533.164 466.761C531.918 474.453 527.835 479.585 520.124 478.934C512.436 478.291 495.751 458.231 495.751 458.231C494.377 456.575 491.49 455.222 489.335 455.222L446.861 455.212C444.72 455.212 441.834 456.564 440.457 458.212C440.457 458.212 423.759 478.291 416.071 478.932C408.362 479.577 404.273 474.435 403.043 466.751C403.043 466.755 395.956 435.346 413.512 406.507" fill="#354A54"/>
<path d="M422.926 466.638C422.926 466.638 415.838 435.231 433.392 406.392C437.785 399.177 442.733 395.019 447.686 392.843C438.386 389.6 424.153 388.763 413.315 406.568C395.768 435.418 402.847 466.818 402.847 466.818C404.08 474.51 408.175 479.644 415.874 478.993C418.361 478.794 421.789 476.545 425.29 473.616C424.134 471.69 423.355 469.324 422.928 466.638M484.43 399.97H491.519C493.663 399.979 496.827 398.911 498.539 397.615C498.539 397.615 502.206 394.837 507.712 392.831C493.035 386.753 478.467 397.797 478.467 397.797C478.343 397.887 478.218 397.979 478.084 398.065C479.87 399.148 482.539 399.968 484.428 399.968M515.622 458.116C514.255 456.46 511.368 455.105 509.218 455.105L466.744 455.101C466.241 455.11 465.741 455.173 465.253 455.291H489.143C491.289 455.291 494.182 456.644 495.552 458.3C495.552 458.3 512.241 478.369 519.929 479.012C525.061 479.441 528.583 477.307 530.733 473.562C523.367 467.421 515.622 458.116 515.622 458.116" fill="#405866"/>
<path d="M450.743 421.138C450.694 420.503 450.674 419.866 450.683 419.229C450.679 419.125 450.705 419.022 450.756 418.931C450.523 418.475 450.229 418.053 449.883 417.675C449.809 417.602 449.755 417.51 449.726 417.41C449.697 417.309 449.694 417.203 449.717 417.101H440.907V408.239H431.389V417.101H423.744V426.766H431.389V433.937H440.907V426.766H450.224C450.278 425.01 450.706 423.253 450.917 421.503C450.816 421.407 450.754 421.277 450.743 421.138Z" fill="#A2ABAF"/>
<path d="M440.949 408C440.949 406.633 439.843 405.523 438.48 405.523H433.872C432.509 405.523 431.395 406.633 431.395 408C431.395 409.363 432.507 410.473 433.872 410.473H438.48C438.805 410.472 439.126 410.408 439.426 410.284C439.725 410.159 439.997 409.977 440.227 409.748C440.456 409.518 440.638 409.245 440.761 408.946C440.885 408.646 440.949 408.324 440.949 408" fill="#A2ABAF"/>
<path d="M423.744 426.626V417.11H431.315V410.274H440.98V417.11H449.847V426.626H440.98V433.946H431.315V426.626H423.744Z" fill="#A2ABAF"/>
<path d="M450.088 426.647C451.453 426.647 452.561 425.539 452.561 424.172V419.568C452.534 418.93 452.262 418.326 451.802 417.884C451.341 417.442 450.727 417.195 450.088 417.195C449.449 417.195 448.835 417.442 448.374 417.884C447.914 418.326 447.642 418.93 447.615 419.568V424.172C447.615 424.497 447.678 424.819 447.802 425.119C447.926 425.42 448.108 425.693 448.338 425.923C448.568 426.152 448.841 426.335 449.141 426.459C449.441 426.583 449.763 426.647 450.088 426.647" fill="#A2ABAF"/>
<path d="M421.548 422.732C421.613 423.37 421.613 424 421.613 424.639C421.616 424.742 421.59 424.843 421.538 424.932C421.764 425.374 422.051 425.797 422.404 426.193C422.57 426.373 422.622 426.58 422.574 426.762H431.382V435.627H440.907V426.762H448.547V417.099H440.907V409.935H431.382V417.099H422.065C422.017 418.858 421.588 420.613 421.378 422.361C421.477 422.46 421.538 422.592 421.548 422.732" fill="#A2ABAF"/>
<path d="M431.345 435.866C431.345 437.233 432.459 438.345 433.832 438.345H438.43C439.795 438.345 440.907 437.233 440.907 435.866C440.907 434.507 439.795 433.391 438.43 433.391H433.832C432.459 433.391 431.345 434.507 431.345 435.866" fill="#A2ABAF"/>
<path d="M448.547 417.244V426.76H440.976V433.6H431.307V426.76H422.444V417.244H431.307V409.935H440.976V417.244H448.547" fill="#A2ABAF"/>
<path d="M422.205 417.215C421.881 417.215 421.559 417.279 421.26 417.403C420.96 417.527 420.687 417.709 420.458 417.939C420.228 418.169 420.046 418.441 419.922 418.741C419.798 419.041 419.735 419.363 419.735 419.687V424.289C419.735 424.945 419.995 425.574 420.459 426.038C420.923 426.502 421.552 426.762 422.208 426.762C422.863 426.762 423.492 426.502 423.956 426.038C424.42 425.574 424.68 424.945 424.68 424.289V419.687C424.681 419.362 424.617 419.04 424.492 418.74C424.368 418.44 424.186 418.167 423.956 417.937C423.726 417.708 423.453 417.526 423.153 417.402C422.852 417.278 422.53 417.214 422.205 417.215" fill="#A2ABAF"/>
<path d="M449.575 420.282C449.52 419.648 449.496 419.011 449.502 418.374C449.502 418.259 449.535 418.163 449.575 418.081C449.344 417.625 449.052 417.202 448.706 416.825C448.635 416.75 448.582 416.659 448.554 416.56C448.525 416.46 448.52 416.355 448.541 416.253H439.741V407.391H430.222V416.253H422.568V425.922H430.222V433.083H439.741V425.922H449.049C449.104 424.157 449.535 422.401 449.743 420.652C449.643 420.554 449.583 420.422 449.575 420.282" fill="#CBD5DC"/>
<path d="M439.762 407.152C439.762 405.789 438.652 404.679 437.289 404.679H432.683C432.358 404.68 432.037 404.744 431.737 404.868C431.438 404.993 431.165 405.175 430.936 405.404C430.707 405.634 430.525 405.906 430.401 406.206C430.277 406.506 430.214 406.828 430.214 407.152C430.214 407.477 430.277 407.798 430.401 408.098C430.525 408.398 430.706 408.671 430.936 408.901C431.165 409.131 431.437 409.313 431.737 409.438C432.037 409.562 432.358 409.627 432.683 409.627H437.289C438.652 409.627 439.762 408.519 439.762 407.152Z" fill="#CBD5DC"/>
<path d="M422.559 425.78V416.26H430.137V409.428H439.799V416.26H448.666V425.78H439.799V433.089H430.137V425.78H422.559" fill="#CBD5DC"/>
<path d="M448.901 425.811C450.279 425.811 451.382 424.7 451.382 423.332V418.73C451.382 418.405 451.318 418.083 451.193 417.782C451.069 417.481 450.886 417.208 450.655 416.978C450.425 416.749 450.151 416.567 449.85 416.443C449.549 416.319 449.226 416.256 448.901 416.258C447.542 416.258 446.428 417.361 446.428 418.73V423.332C446.428 424.7 447.542 425.811 448.901 425.811Z" fill="#CBD5DC"/>
<path d="M420.371 421.886C420.426 422.52 420.43 423.161 420.43 423.791C420.429 423.895 420.408 423.997 420.367 424.093C420.587 424.534 420.87 424.951 421.224 425.347C421.391 425.527 421.439 425.734 421.393 425.92H430.202V434.779H439.72V425.92H447.364V416.256H439.72V409.087H430.202V416.256H420.895C420.842 418.014 420.403 419.771 420.204 421.517C420.299 421.618 420.358 421.748 420.371 421.886" fill="#CBD5DC"/>
<path d="M430.174 435.022C430.173 435.348 430.235 435.67 430.359 435.972C430.483 436.273 430.664 436.547 430.894 436.778C431.124 437.009 431.397 437.192 431.698 437.316C431.999 437.441 432.321 437.505 432.647 437.505H437.249C437.893 437.486 438.504 437.218 438.952 436.756C439.401 436.294 439.652 435.675 439.652 435.031C439.652 434.387 439.401 433.769 438.952 433.307C438.504 432.845 437.893 432.576 437.249 432.558H432.647C431.278 432.558 430.174 433.661 430.174 435.022" fill="#CBD5DC"/>
<path d="M447.356 416.388V425.908H439.791V432.74H430.122V425.908H421.263V416.388H430.122V409.074H439.791V416.388H447.356Z" fill="#CBD5DC"/>
<path d="M421.025 416.367C419.662 416.367 418.546 417.474 418.546 418.848V423.446C418.564 424.09 418.833 424.701 419.296 425.15C419.758 425.599 420.377 425.85 421.022 425.85C421.666 425.85 422.285 425.599 422.747 425.15C423.21 424.701 423.479 424.09 423.497 423.446V418.848C423.497 417.476 422.392 416.367 421.025 416.367Z" fill="#CBD5DC"/>
<path d="M515.277 409.876C515.277 411.397 514.673 412.855 513.597 413.93C512.522 415.006 511.064 415.61 509.543 415.61C508.022 415.61 506.564 415.006 505.489 413.93C504.413 412.855 503.809 411.397 503.809 409.876C503.81 408.355 504.415 406.896 505.491 405.821C506.567 404.745 508.025 404.14 509.546 404.139C510.299 404.139 511.045 404.288 511.741 404.576C512.436 404.864 513.068 405.287 513.601 405.82C514.133 406.353 514.555 406.985 514.842 407.681C515.13 408.377 515.278 409.123 515.277 409.876" fill="#FAAA33"/>
<path d="M493.921 420.054C497.09 420.054 499.66 417.484 499.66 414.315C499.66 411.145 497.09 408.576 493.921 408.576C490.751 408.576 488.182 411.145 488.182 414.315C488.182 417.484 490.751 420.054 493.921 420.054Z" fill="#FAAA33"/>
<path d="M521.014 425.01C521.012 426.532 520.405 427.992 519.327 429.067C518.25 430.143 516.789 430.747 515.266 430.746C513.764 430.718 512.333 430.101 511.281 429.028C510.229 427.956 509.639 426.513 509.639 425.011C509.639 423.508 510.229 422.066 511.281 420.993C512.333 419.92 513.764 419.303 515.266 419.275C516.02 419.274 516.767 419.422 517.464 419.709C518.161 419.997 518.794 420.419 519.328 420.952C519.861 421.484 520.285 422.117 520.574 422.813C520.864 423.509 521.013 424.256 521.014 425.01M505.386 429.44C505.346 430.934 504.724 432.353 503.653 433.396C502.582 434.438 501.146 435.022 499.651 435.022C498.157 435.022 496.721 434.438 495.65 433.396C494.579 432.353 493.957 430.934 493.916 429.44C493.916 428.686 494.063 427.939 494.351 427.242C494.639 426.546 495.061 425.912 495.594 425.379C496.126 424.845 496.758 424.421 497.455 424.132C498.151 423.843 498.897 423.693 499.651 423.693C500.405 423.693 501.152 423.843 501.848 424.132C502.544 424.421 503.176 424.845 503.709 425.379C504.241 425.912 504.664 426.546 504.951 427.242C505.239 427.939 505.387 428.686 505.386 429.44" fill="#FAAA33"/>
</g>
<path d="M129.25 486.5V384.5C129.25 377.487 134.987 371.75 142 371.75H193C200.013 371.75 205.75 377.487 205.75 384.5V486.5C205.75 493.513 200.013 499.25 193 499.25H142C134.987 499.25 129.25 493.513 129.25 486.5Z" fill="#37474F"/>
<path d="M193 381.312H142C140.087 381.312 138.812 382.587 138.812 384.5V476.938C138.812 478.85 140.087 480.125 142 480.125H193C194.913 480.125 196.188 478.85 196.188 476.938V384.5C196.188 382.587 194.913 381.312 193 381.312Z" fill="#BBDEFB"/>
<path d="M157.938 486.5H177.062V492.875H157.938V486.5Z" fill="#78909C"/>
<path d="M187.158 430.342C187.158 432.401 185.486 434.072 183.421 434.072C181.356 434.072 179.684 432.401 179.684 430.342C179.684 428.284 181.356 426.613 183.421 426.613C185.486 426.613 187.158 428.284 187.158 430.342Z" fill="#FFC700" stroke="black" stroke-width="2"/>
<ellipse cx="162.737" cy="422.617" rx="3.94737" ry="3.62613" fill="#FFC700"/>
<path d="M177.473 438.824C174.508 443.702 169.293 446.685 163.526 446.685C154.5 446.685 147.158 439.351 147.158 430.342C147.158 421.333 154.5 414 163.526 414C169.293 414 174.508 416.983 177.473 421.861L164.749 429.485L163.317 430.342L164.749 431.2L177.473 438.824ZM165.207 419.992C164.531 419.317 163.614 418.937 162.658 418.937C161.702 418.937 160.785 419.315 160.108 419.991C159.432 420.666 159.051 421.582 159.051 422.538C159.051 423.494 159.431 424.41 160.107 425.086C160.783 425.762 161.7 426.141 162.656 426.141C163.612 426.142 164.529 425.763 165.206 425.088C165.882 424.412 166.263 423.496 166.263 422.54C166.263 421.585 165.883 420.668 165.207 419.992Z" fill="#FFC700" stroke="black" stroke-width="2"/>
<defs>
<clipPath id="clip0_109_43">
<rect width="134" height="134" fill="white" transform="translate(401 372)"/>
</clipPath>
</defs>
</svg>
