<svg width="150" height="150" viewBox="0 0 150 150" fill="none" xmlns="http://www.w3.org/2000/svg">
<circle cx="76.5" cy="77.5" r="42.5" fill="#F69653"/>
<rect x="35.9368" y="41" width="22" height="21" transform="rotate(31.386 35.9368 41)" fill="#F69653"/>
<rect x="25" y="93.3348" width="22" height="21" transform="rotate(-34.1024 25 93.3348)" fill="#F69653"/>
<rect x="106.562" y="81" width="21.0747" height="18.4438" transform="rotate(33.4076 106.562 81)" fill="#F69653"/>
<rect x="83.4278" y="107" width="21.0747" height="18.4438" transform="rotate(87.6092 83.4278 107)" fill="#F69653"/>
<rect x="84.4278" y="24" width="21.0747" height="18.4438" transform="rotate(87.6092 84.4278 24)" fill="#F69653"/>
<rect x="107.496" y="41" width="20.2387" height="22.0745" transform="rotate(31.386 107.496 41)" fill="#F69653"/>
<circle cx="74.5" cy="73.5" r="19.5" fill="#F5E9D7"/>
<path d="M98.0388 74.2389C98.0388 70.3497 97.0505 66.6788 95.3177 63.4827C91.4927 56.436 84.0352 51.6484 75.4483 51.6484C62.9721 51.6484 52.8577 61.7628 52.8577 74.2389C52.8577 82.8259 57.6454 90.2833 64.6921 94.1083C67.8881 95.8411 71.5463 96.8295 75.4483 96.8295C87.9244 96.8295 98.0388 86.715 98.0388 74.2389ZM61.0725 74.2389C61.0725 70.4011 62.5742 66.7943 65.2825 64.0732C68.0037 61.352 71.6104 59.8631 75.4483 59.8631C79.2861 59.8631 82.8929 61.352 85.614 64.0732C86.9512 65.4065 88.0115 66.9911 88.734 68.7357C89.4566 70.4803 89.827 72.3506 89.8241 74.2389C89.8241 78.0767 88.3223 81.6835 85.614 84.4047C84.2807 85.7418 82.6961 86.8022 80.9515 87.5247C79.2069 88.2472 77.3366 88.6176 75.4483 88.6147C71.6104 88.6147 68.0037 87.113 65.2825 84.4047C63.9454 83.0713 62.885 81.4868 62.1625 79.7421C61.44 77.9975 61.0695 76.1272 61.0725 74.2389V74.2389Z" fill="#37474F"/>
<path d="M85.9863 132.024C86.8079 131.876 87.5646 131.48 88.1561 130.891C88.7476 130.302 89.1459 129.547 89.2979 128.726L91.3131 117.816C95.9577 116.075 100.282 113.576 104.11 110.422L114.545 114.132C115.331 114.41 116.183 114.442 116.988 114.224C117.793 114.006 118.512 113.549 119.051 112.912L119.282 112.643C123.748 107.367 127.188 101.412 129.512 94.9426L129.627 94.6089C129.845 94.0185 129.91 93.4024 129.845 92.7991C129.73 91.7851 129.242 90.8224 128.433 90.1165L120.052 82.9414L120.026 82.9286C120.424 80.4898 120.629 77.9997 120.629 75.5096C120.629 73.3404 120.475 71.1584 120.167 69.0277C120.129 68.7453 120.078 68.4629 120.039 68.1805C120.039 68.1549 120.026 68.1164 120.026 68.0907L128.433 60.9028C129.319 60.1455 129.833 59.0545 129.871 57.9249C129.884 57.4115 129.807 56.8853 129.627 56.3847L129.512 56.0509C127.197 49.5822 123.731 43.5855 119.282 38.3507L119.051 38.0812C118.511 37.4465 117.791 36.9903 116.987 36.7726C116.183 36.5549 115.332 36.586 114.545 36.8618L104.11 40.5713C100.259 37.4137 95.9724 34.9237 91.3259 33.178H91.3131L89.2979 22.2678C89.2851 22.2036 89.2722 22.1266 89.2466 22.0624C89.0613 21.2864 88.6545 20.5809 88.0757 20.0318C87.4969 19.4826 86.771 19.1134 85.9863 18.9691L85.6398 18.9049C78.9525 17.6984 71.9186 17.6984 65.2313 18.9049L64.8847 18.9691C64.0632 19.1179 63.3064 19.5132 62.7149 20.1024C62.1234 20.6916 61.7252 21.4469 61.5732 22.2678L59.5451 33.2294C54.9358 34.9754 50.6433 37.4641 46.838 40.597L36.3257 36.8618C35.5397 36.5838 34.6877 36.5516 33.883 36.7694C33.0783 36.9872 32.3589 37.4447 31.8204 38.0812L31.5893 38.3507C27.145 43.5892 23.6798 49.5849 21.3594 56.0509L21.2439 56.3847C20.9764 57.1306 20.9298 57.9379 21.1097 58.7097C21.2895 59.4815 21.6882 60.185 22.2579 60.7359C22.3221 60.7873 22.3734 60.8514 22.4376 60.9028L30.9476 68.1677V68.1805C30.5497 70.5936 30.3571 73.0452 30.3571 75.4968C30.3571 77.9612 30.5497 80.4256 30.9476 82.8259L22.4376 90.0908C21.8035 90.6337 21.3496 91.3567 21.1364 92.1638C20.9232 92.9708 20.9607 93.8237 21.2439 94.6089L21.3594 94.9426C23.6827 101.412 27.1226 107.38 31.5893 112.643L31.8204 112.912C32.4493 113.644 33.2836 114.119 34.195 114.286C34.8881 114.414 35.6197 114.376 36.3257 114.132L46.838 110.397C46.8508 110.409 46.8765 110.422 46.8893 110.435C50.7015 113.554 54.95 116.031 59.5451 117.764L61.5732 128.726C61.7252 129.547 62.1234 130.302 62.7149 130.891C63.3064 131.48 64.0632 131.876 64.8847 132.024L65.2313 132.089C68.5814 132.692 72.0084 133 75.4355 133H75.474C78.8883 133 82.3154 132.692 85.6398 132.089L85.9863 132.024V132.024ZM80.8778 123.489C77.2527 123.9 73.5927 123.9 69.9676 123.489L67.67 111.013L62.8182 109.152C59.1601 107.765 55.7587 105.789 52.7166 103.286L48.6863 99.9613L36.6979 104.223C34.5158 101.283 32.6932 98.113 31.2299 94.7758L40.9208 86.4968L40.0865 81.3626C39.7784 79.4501 39.6116 77.4735 39.6116 75.5225C39.6116 73.5586 39.7656 71.5948 40.0865 69.6823L40.9208 64.5481L31.2299 56.2692C32.6804 52.9191 34.5158 49.7615 36.6979 46.8222L48.6863 51.0836L52.7166 47.7592C55.7587 45.2563 59.1601 43.2796 62.8182 41.8934L67.6829 40.0579L69.9804 27.5817C73.5872 27.171 77.271 27.171 80.8906 27.5817L83.1882 40.0322L88.0785 41.8677C91.7623 43.2539 95.1894 45.2306 98.2571 47.7464L102.287 51.0579L114.199 46.835C116.381 49.7744 118.204 52.9447 119.667 56.282L110.079 64.4839L110.913 69.6053C111.234 71.5434 111.401 73.5329 111.401 75.5225C111.401 77.512 111.234 79.5015 110.913 81.4396L110.066 86.5867L119.654 94.7886C118.2 98.1373 116.366 101.307 114.186 104.236L102.275 100.013L98.2443 103.324C95.1766 105.84 91.7623 107.817 88.0657 109.203L83.1754 111.038L80.8778 123.489V123.489Z" fill="#37474F"/>
</svg>
