<svg width="150" height="150" viewBox="0 0 150 150" fill="none" xmlns="http://www.w3.org/2000/svg">
<path d="M23.2375 88.85V36.475C23.2375 30.7137 27.9513 26 33.7125 26H107.038C112.799 26 117.513 30.7137 117.513 36.475V88.85C117.513 94.6112 112.799 99.325 107.038 99.325H33.7125C27.9513 99.325 23.2375 94.6112 23.2375 88.85Z" fill="#546E7A"/>
<path d="M107.038 33.8563H33.7125C32.1412 33.8563 31.0938 34.9038 31.0938 36.475V88.85C31.0938 90.4213 32.1412 91.4688 33.7125 91.4688H107.038C108.609 91.4688 109.656 90.4213 109.656 88.85V36.475C109.656 34.9038 108.609 33.8563 107.038 33.8563Z" fill="#BBDEFB"/>
<path d="M112.275 101.944H28.475C22.7138 101.944 18 97.23 18 91.4688H122.75C122.75 97.23 118.036 101.944 112.275 101.944Z" fill="#37474F"/>
<path d="M86.75 115.4V60.2C86.75 55.14 90.89 51 95.95 51H123.55C128.61 51 132.75 55.14 132.75 60.2V115.4C132.75 120.46 128.61 124.6 123.55 124.6H95.95C90.89 124.6 86.75 120.46 86.75 115.4Z" fill="#F69653"/>
<path d="M123.55 57.9H95.95C94.57 57.9 93.65 58.82 93.65 60.2V110.8C93.65 112.18 94.57 113.1 95.95 113.1H123.55C124.93 113.1 125.85 112.18 125.85 110.8V60.2C125.85 58.82 124.93 57.9 123.55 57.9Z" fill="#FFE9D9"/>
<path d="M109.75 122.3C111.655 122.3 113.2 120.755 113.2 118.85C113.2 116.945 111.655 115.4 109.75 115.4C107.845 115.4 106.3 116.945 106.3 118.85C106.3 120.755 107.845 122.3 109.75 122.3Z" fill="#914813"/>
</svg>
