<svg width="150" height="150" viewBox="0 0 150 150" fill="none" xmlns="http://www.w3.org/2000/svg">
<path d="M72.1122 97.3703C74.0723 96.1913 76.5322 96.2293 78.4549 97.4683L95.699 108.58C99.4333 110.987 99.3485 116.476 95.5417 118.765L77.9625 129.339C76.0024 130.519 73.5425 130.48 71.6198 129.241L54.3756 118.129C50.6413 115.723 50.7261 110.234 54.533 107.944L72.1122 97.3703Z" fill="#CCCCCC"/>
<rect x="34" y="81" width="82" height="20" rx="4" fill="#F69653"/>
<rect x="54" y="25" width="42" height="79" rx="19" fill="#F69653"/>
<path d="M126.562 107.812C126.562 91.4648 116.982 77.3438 103.125 70.7666V46.4795C103.125 44.2676 102.349 42.1289 100.913 40.4443L78.5889 13.9746C77.6514 12.8613 76.3184 12.3047 75 12.3047C73.6816 12.3047 72.3486 12.8613 71.4111 13.9746L49.0869 40.4443C47.6611 42.1324 46.8777 44.2699 46.875 46.4795V70.7666C33.0176 77.3438 23.4375 91.4648 23.4375 107.812H46.3623C46.0254 108.867 45.8496 110.01 45.8496 111.299C45.8496 114.536 46.9629 117.7 48.9844 120.205C50.6344 122.254 52.8197 123.805 55.2979 124.688C58.6816 132.598 66.3721 137.695 75 137.695C79.2627 137.695 83.3936 136.436 86.9238 134.062C90.3809 131.748 93.0615 128.511 94.6875 124.688C97.1646 123.811 99.3501 122.264 101.001 120.22C103.025 117.692 104.13 114.552 104.136 111.313C104.136 110.083 103.975 108.911 103.682 107.827L126.562 107.812ZM47.4609 97.8516H35.0391C35.8447 95.4639 36.958 93.1641 38.335 91.0254C40.7227 87.334 43.8281 84.2139 47.4609 81.8408V97.8516ZM56.8359 70.7666V46.6992L75 25.166L93.1641 46.6992V97.8516H56.8359V70.7666ZM92.0068 114.873C91.2451 115.312 90.3662 115.488 89.502 115.371L86.6455 115.02L86.2354 117.861C85.4443 123.413 80.6104 127.603 75 127.603C69.3896 127.603 64.5557 123.413 63.7646 117.861L63.3545 115.005L60.498 115.371C59.6297 115.475 58.7511 115.295 57.9932 114.858C56.7188 114.126 55.9277 112.764 55.9277 111.284C55.9277 109.731 56.792 108.442 58.0664 107.798H91.9482C93.2373 108.457 94.0869 109.746 94.0869 111.284C94.0723 112.778 93.2812 114.155 92.0068 114.873ZM102.539 97.8516V81.8408C106.194 84.2258 109.304 87.3556 111.665 91.0254C113.042 93.1641 114.155 95.4639 114.961 97.8516H102.539Z" fill="#37474F"/>
<path d="M67.9688 58.5938C67.9688 60.4586 68.7095 62.247 70.0282 63.5656C71.3468 64.8842 73.1352 65.625 75 65.625C76.8648 65.625 78.6532 64.8842 79.9718 63.5656C81.2905 62.247 82.0312 60.4586 82.0312 58.5938C82.0312 56.7289 81.2905 54.9405 79.9718 53.6219C78.6532 52.3033 76.8648 51.5625 75 51.5625C73.1352 51.5625 71.3468 52.3033 70.0282 53.6219C68.7095 54.9405 67.9688 56.7289 67.9688 58.5938Z" fill="#37474F"/>
</svg>
