<svg width="150" height="150" viewBox="0 0 150 150" fill="none" xmlns="http://www.w3.org/2000/svg">
<circle cx="49.5382" cy="74.4813" r="14.5979" fill="#F69653"/>
<circle cx="107.045" cy="108.985" r="9.79514" fill="#F69653"/>
<circle cx="105.086" cy="39.6612" r="10.4903" fill="#F69653"/>
<path d="M104.833 93.7556C101.231 93.7556 97.9072 95.0194 95.3036 97.1301L69.1158 78.1844C69.5543 75.7776 69.5543 73.3113 69.1158 70.9044L95.3036 51.9587C97.9072 54.0694 101.231 55.3333 104.833 55.3333C113.2 55.3333 120 48.5336 120 40.1667C120 31.7997 113.2 25 104.833 25C96.4664 25 89.6667 31.7997 89.6667 40.1667C89.6667 41.6328 89.8689 43.0357 90.2607 44.3754L65.3874 62.3858C61.6968 57.4946 55.8324 54.3222 49.2222 54.3222C38.0494 54.3222 29 63.3717 29 74.5444C29 85.7172 38.0494 94.7667 49.2222 94.7667C55.8324 94.7667 61.6968 91.5943 65.3874 86.7031L90.2607 104.713C89.8689 106.053 89.6667 107.469 89.6667 108.922C89.6667 117.289 96.4664 124.089 104.833 124.089C113.2 124.089 120 117.289 120 108.922C120 100.555 113.2 93.7556 104.833 93.7556ZM104.833 33.5944C108.461 33.5944 111.406 36.5393 111.406 40.1667C111.406 43.794 108.461 46.7389 104.833 46.7389C101.206 46.7389 98.2611 43.794 98.2611 40.1667C98.2611 36.5393 101.206 33.5944 104.833 33.5944ZM49.2222 85.6667C43.0924 85.6667 38.1 80.6743 38.1 74.5444C38.1 68.4146 43.0924 63.4222 49.2222 63.4222C55.3521 63.4222 60.3444 68.4146 60.3444 74.5444C60.3444 80.6743 55.3521 85.6667 49.2222 85.6667ZM104.833 115.494C101.206 115.494 98.2611 112.55 98.2611 108.922C98.2611 105.295 101.206 102.35 104.833 102.35C108.461 102.35 111.406 105.295 111.406 108.922C111.406 112.55 108.461 115.494 104.833 115.494Z" fill="#37474F"/>
</svg>
