<svg width="22" height="22" viewBox="0 0 22 22" fill="none" xmlns="http://www.w3.org/2000/svg">
<mask id="path-1-inside-1_185_18" fill="white">
<path d="M11 11.154C9.999 9.647 8.954 8.558 7.854 7.909C6.754 7.249 5.797 7.018 4.95 7.205C4.147 7.403 3.454 7.854 2.904 8.58C2.42 9.229 2.2 9.966 2.2 10.791V11C2.2 11.858 2.321 12.738 2.596 13.629C2.695 13.904 2.75 13.904 2.805 13.629C2.937 12.947 3.256 12.441 3.751 12.133C4.257 11.825 4.917 11.836 5.742 12.155C6.567 12.485 7.37 13.2 8.162 14.245C9.57 16.137 11.22 17.292 13.112 17.699C15.554 18.051 17.391 17.27 18.634 15.4C18.975 14.729 19.25 14.146 19.404 13.629C19.503 13.288 19.459 13.255 19.25 13.53C18.733 14.212 18.04 14.663 17.16 14.85C16.28 15.07 15.279 14.85 14.146 14.3C13.013 13.673 11.968 12.65 11 11.154M16.467 6.776C14.751 4.191 12.892 2.75 10.901 2.387C9.317 2.145 7.601 2.695 5.742 4.037C5.5 4.213 5.39 4.301 5.401 4.323C5.423 4.345 5.566 4.279 5.841 4.147C8.591 2.805 11.242 4.213 13.783 8.371C14.333 9.295 14.905 10.021 15.51 10.538C16.115 11.055 16.676 11.363 17.215 11.462C17.743 11.55 18.227 11.55 18.656 11.418C19.085 11.275 19.47 11.055 19.8 10.747C19.8 10.087 19.701 9.35 19.459 8.58C18.909 8.712 18.414 8.668 17.985 8.448C17.556 8.25 17.05 7.667 16.467 6.776M11 0C14.025 0 16.61 1.1 18.755 3.245C20.9 5.39 22 7.975 22 11C22 14.025 20.9 16.61 18.755 18.755C16.61 20.9 14.025 22 11 22C7.975 22 5.39 20.9 3.245 18.755C1.1 16.61 0 14.025 0 11C0 7.975 1.1 5.39 3.245 3.245C5.39 1.1 7.975 0 11 0Z"/>
</mask>
<path d="M11 11.154C9.999 9.647 8.954 8.558 7.854 7.909C6.754 7.249 5.797 7.018 4.95 7.205C4.147 7.403 3.454 7.854 2.904 8.58C2.42 9.229 2.2 9.966 2.2 10.791V11C2.2 11.858 2.321 12.738 2.596 13.629C2.695 13.904 2.75 13.904 2.805 13.629C2.937 12.947 3.256 12.441 3.751 12.133C4.257 11.825 4.917 11.836 5.742 12.155C6.567 12.485 7.37 13.2 8.162 14.245C9.57 16.137 11.22 17.292 13.112 17.699C15.554 18.051 17.391 17.27 18.634 15.4C18.975 14.729 19.25 14.146 19.404 13.629C19.503 13.288 19.459 13.255 19.25 13.53C18.733 14.212 18.04 14.663 17.16 14.85C16.28 15.07 15.279 14.85 14.146 14.3C13.013 13.673 11.968 12.65 11 11.154M16.467 6.776C14.751 4.191 12.892 2.75 10.901 2.387C9.317 2.145 7.601 2.695 5.742 4.037C5.5 4.213 5.39 4.301 5.401 4.323C5.423 4.345 5.566 4.279 5.841 4.147C8.591 2.805 11.242 4.213 13.783 8.371C14.333 9.295 14.905 10.021 15.51 10.538C16.115 11.055 16.676 11.363 17.215 11.462C17.743 11.55 18.227 11.55 18.656 11.418C19.085 11.275 19.47 11.055 19.8 10.747C19.8 10.087 19.701 9.35 19.459 8.58C18.909 8.712 18.414 8.668 17.985 8.448C17.556 8.25 17.05 7.667 16.467 6.776M11 0C14.025 0 16.61 1.1 18.755 3.245C20.9 5.39 22 7.975 22 11C22 14.025 20.9 16.61 18.755 18.755C16.61 20.9 14.025 22 11 22C7.975 22 5.39 20.9 3.245 18.755C1.1 16.61 0 14.025 0 11C0 7.975 1.1 5.39 3.245 3.245C5.39 1.1 7.975 0 11 0Z" fill="#438EFF"/>
<path d="M7.854 7.909L7.49384 8.50926L7.4983 8.51189L7.854 7.909ZM4.95 7.205L4.79909 6.52146L4.79073 6.52331L4.78242 6.52536L4.95 7.205ZM2.904 8.58L2.34602 8.15729L2.34286 8.16152L2.904 8.58ZM2.596 13.629L1.92713 13.8354L1.9319 13.8509L1.93738 13.8661L2.596 13.629ZM2.805 13.629L3.49142 13.7663L3.49225 13.762L2.805 13.629ZM3.751 12.133L3.38702 11.535L3.38119 11.5387L3.751 12.133ZM5.742 12.155L6.00199 11.505L5.99445 11.5021L5.742 12.155ZM8.162 14.245L8.72359 13.8271L8.71988 13.8222L8.162 14.245ZM13.112 17.699L12.9648 18.3833L12.9883 18.3884L13.0121 18.3918L13.112 17.699ZM18.634 15.4L19.217 15.7875L19.2396 15.7535L19.258 15.7171L18.634 15.4ZM19.404 13.629L20.0749 13.8288L20.0762 13.8242L19.404 13.629ZM19.25 13.53L18.6927 13.1064L18.6922 13.1071L19.25 13.53ZM17.16 14.85L17.0145 14.1653L17.0023 14.1679L16.9902 14.1709L17.16 14.85ZM14.146 14.3L13.8071 14.9125L13.8235 14.9215L13.8403 14.9297L14.146 14.3ZM10.901 2.387L11.0266 1.69835L11.0167 1.69655L11.0067 1.69503L10.901 2.387ZM5.742 4.037L5.33228 3.46943L5.33028 3.47088L5.742 4.037ZM5.401 4.323L4.7749 4.63605L4.8257 4.73765L4.90603 4.81797L5.401 4.323ZM5.841 4.147L6.14392 4.77808L6.148 4.77609L5.841 4.147ZM13.783 8.371L14.3845 8.01294L14.3803 8.00598L13.783 8.371ZM17.215 11.462L17.0885 12.1506L17.0999 12.1525L17.215 11.462ZM18.656 11.418L18.8619 12.087L18.8696 12.0847L18.8774 12.0821L18.656 11.418ZM19.8 10.747L20.2776 11.2587L20.5 11.0512V10.747H19.8ZM19.459 8.58L20.1268 8.37012L19.9309 7.74686L19.2956 7.89933L19.459 8.58ZM17.985 8.448L18.3044 7.82513L18.2915 7.81851L18.2783 7.81243L17.985 8.448ZM11.5831 10.7667C10.5487 9.20947 9.43323 8.02799 8.2097 7.30611L7.4983 8.51189C8.47477 9.08801 9.44927 10.0845 10.4169 11.5413L11.5831 10.7667ZM8.21415 7.30875C7.03238 6.5997 5.88822 6.281 4.79909 6.52146L5.10091 7.88854C5.70578 7.755 6.47562 7.8983 7.49385 8.50924L8.21415 7.30875ZM4.78242 6.52536C3.81808 6.76314 2.98933 7.30815 2.34604 8.1573L3.46196 9.0027C3.91867 8.39985 4.47592 8.04286 5.11758 7.88464L4.78242 6.52536ZM2.34286 8.16152C1.75916 8.94422 1.5 9.83198 1.5 10.791H2.9C2.9 10.1 3.08084 9.51378 3.46514 8.99848L2.34286 8.16152ZM1.5 10.791V11H2.9V10.791H1.5ZM1.5 11C1.5 11.9247 1.63056 12.8745 1.92713 13.8354L3.26487 13.4226C3.01144 12.6015 2.9 11.7913 2.9 11H1.5ZM1.93738 13.8661C1.96549 13.9442 2.00455 14.0442 2.05717 14.1349C2.08256 14.1787 2.13088 14.2554 2.20837 14.3293C2.28169 14.3991 2.455 14.5353 2.717 14.5353C2.99522 14.5353 3.17838 14.3836 3.2637 14.2877C3.34502 14.1964 3.38807 14.1033 3.40845 14.0548C3.4512 13.953 3.47575 13.8446 3.49141 13.7663L2.11859 13.4917C2.10675 13.5509 2.1038 13.5457 2.11768 13.5126C2.12362 13.4985 2.15188 13.4312 2.21791 13.357C2.28793 13.2783 2.45528 13.1353 2.717 13.1353C2.9625 13.1353 3.11862 13.2628 3.17389 13.3155C3.23334 13.3721 3.26276 13.4231 3.26821 13.4325C3.28095 13.4545 3.27601 13.4513 3.25462 13.3919L1.93738 13.8661ZM3.49225 13.762C3.59515 13.2304 3.82354 12.9123 4.12081 12.7273L3.38119 11.5387C2.68846 11.9697 2.27885 12.6636 2.11775 13.496L3.49225 13.762ZM4.11496 12.7309C4.35451 12.5851 4.75909 12.5254 5.48955 12.8079L5.99445 11.5021C5.07491 11.1466 4.15949 11.0649 3.38704 11.5351L4.11496 12.7309ZM5.48203 12.8049C6.13751 13.0671 6.84665 13.6684 7.60412 14.6678L8.71988 13.8222C7.89335 12.7316 6.99649 11.9029 6.00197 11.5051L5.48203 12.8049ZM7.60044 14.6629C9.08585 16.6589 10.8717 17.9331 12.9648 18.3833L13.2592 17.0147C11.5683 16.6509 10.0541 15.6151 8.72356 13.8271L7.60044 14.6629ZM13.0121 18.3918C14.3303 18.5818 15.5324 18.4723 16.5929 18.0285C17.6569 17.5832 18.5297 16.8215 19.217 15.7875L18.051 15.0125C17.4953 15.8485 16.8281 16.4123 16.0524 16.737C15.2731 17.0632 14.3357 17.1682 13.2119 17.0062L13.0121 18.3918ZM19.258 15.7171C19.5987 15.0469 19.9008 14.4132 20.0749 13.8288L18.7331 13.4292C18.5992 13.8788 18.3513 14.4111 18.01 15.0829L19.258 15.7171ZM20.0762 13.8242C20.1033 13.7309 20.1307 13.6259 20.1444 13.5279C20.1507 13.4826 20.1601 13.3996 20.1502 13.3035C20.1445 13.2487 20.1135 12.9545 19.8308 12.7661C19.504 12.5482 19.1859 12.6835 19.1046 12.724C19.001 12.7756 18.9281 12.8417 18.895 12.873C18.8198 12.9442 18.7497 13.0314 18.6927 13.1064L19.8073 13.9536C19.8548 13.8911 19.8686 13.8793 19.8573 13.89C19.8561 13.891 19.8102 13.9366 19.7288 13.9771C19.6695 14.0066 19.3686 14.1405 19.0542 13.9309C18.7839 13.7507 18.7604 13.4745 18.7576 13.4471C18.7536 13.4086 18.7544 13.3793 18.7551 13.3643C18.7559 13.3483 18.7573 13.3376 18.7578 13.3341C18.7585 13.3296 18.7542 13.3566 18.7318 13.4338L20.0762 13.8242ZM18.6922 13.1071C18.2761 13.6559 17.7291 14.0134 17.0145 14.1653L17.3055 15.5347C18.3509 15.3126 19.1899 14.7681 19.8078 13.9529L18.6922 13.1071ZM16.9902 14.1709C16.3425 14.3328 15.5227 14.1902 14.4517 13.6703L13.8403 14.9297C15.0353 15.5098 16.2175 15.8072 17.3298 15.5291L16.9902 14.1709ZM14.4849 13.6875C13.4778 13.1302 12.5108 12.2004 11.5877 10.7737L10.4123 11.5343C11.4252 13.0996 12.5482 14.2158 13.8071 14.9125L14.4849 13.6875ZM17.0502 6.38886C15.2801 3.72232 13.2795 2.1091 11.0266 1.69835L10.7754 3.07565C12.5045 3.3909 14.2219 4.65968 15.8838 7.16314L17.0502 6.38886ZM11.0067 1.69503C9.17512 1.4152 7.2753 2.06678 5.33228 3.46944L6.15172 4.60456C7.9267 3.32322 9.45888 2.8748 10.7953 3.07897L11.0067 1.69503ZM5.33028 3.47088C5.21015 3.55826 5.10541 3.63621 5.02979 3.69892C4.99587 3.72705 4.94194 3.7731 4.89278 3.82833C4.87112 3.85266 4.81956 3.91238 4.77647 3.99856C4.74771 4.05607 4.62016 4.32656 4.7749 4.63605L6.0271 4.00995C6.10325 4.16226 6.10813 4.30937 6.09384 4.41338C6.08034 4.51162 6.04859 4.58481 6.02867 4.62466C5.99043 4.70113 5.94755 4.749 5.93844 4.75923C5.91437 4.78627 5.90101 4.7952 5.92346 4.77658C5.96059 4.74579 6.03185 4.69174 6.15372 4.60312L5.33028 3.47088ZM4.90603 4.81797C5.1047 5.01665 5.34042 5.02669 5.41035 5.02715C5.50116 5.02775 5.57424 5.01134 5.60881 5.00277C5.6829 4.9844 5.75133 4.95718 5.79449 4.93926C5.88846 4.90026 6.01148 4.84163 6.14391 4.77807L5.53809 3.51593C5.39552 3.58437 5.30954 3.62474 5.25776 3.64624C5.22804 3.65857 5.23941 3.65197 5.27191 3.64391C5.28568 3.6405 5.34183 3.62667 5.41953 3.62718C5.46039 3.62745 5.52733 3.63165 5.60662 3.6553C5.68825 3.67965 5.79707 3.72912 5.89597 3.82803L4.90603 4.81797ZM6.148 4.77609C7.32641 4.20102 8.44023 4.21828 9.56176 4.81457C10.7265 5.43384 11.944 6.70406 13.1857 8.73601L14.3803 8.00598C13.081 5.87994 11.7025 4.36716 10.219 3.57843C8.69227 2.76672 7.10559 2.75098 5.534 3.51791L6.148 4.77609ZM13.1815 8.72904C13.7554 9.69325 14.3733 10.4874 15.0552 11.0702L15.9648 10.0058C15.4368 9.55463 14.9106 8.89675 14.3845 8.01296L13.1815 8.72904ZM15.0552 11.0702C15.7107 11.6303 16.3824 12.0208 17.0885 12.1505L17.3415 10.7735C16.9696 10.7052 16.5193 10.4797 15.9648 10.0058L15.0552 11.0702ZM17.0999 12.1525C17.6898 12.2508 18.2926 12.2622 18.8619 12.087L18.4501 10.749C18.1614 10.8378 17.7962 10.8492 17.3301 10.7715L17.0999 12.1525ZM18.8774 12.0821C19.3937 11.91 19.8682 11.6409 20.2776 11.2587L19.3224 10.2353C19.0718 10.4691 18.7763 10.64 18.4346 10.7539L18.8774 12.0821ZM20.5 10.747C20.5 10.0176 20.3907 9.20972 20.1268 8.37012L18.7912 8.78988C19.0113 9.49028 19.1 10.1564 19.1 10.747H20.5ZM19.2956 7.89933C18.8781 7.99954 18.5591 7.95572 18.3044 7.82513L17.6656 9.07087C18.2689 9.38028 18.9399 9.42446 19.6224 9.26067L19.2956 7.89933ZM18.2783 7.81243C18.1909 7.77207 18.0328 7.6585 17.8047 7.4043C17.5844 7.15882 17.3339 6.82238 17.0528 6.39273L15.8812 7.15927C16.1831 7.62062 16.4771 8.02118 16.7628 8.33945C17.0407 8.649 17.3501 8.92593 17.6917 9.08357L18.2783 7.81243ZM11 0.7C13.8342 0.7 16.2426 1.72258 18.26 3.73997L19.25 2.75003C16.9774 0.477422 14.2158 -0.7 11 -0.7V0.7ZM18.26 3.73997C20.2774 5.75737 21.3 8.16578 21.3 11H22.7C22.7 7.78422 21.5226 5.02263 19.25 2.75003L18.26 3.73997ZM21.3 11C21.3 13.8342 20.2774 16.2426 18.26 18.26L19.25 19.25C21.5226 16.9774 22.7 14.2158 22.7 11H21.3ZM18.26 18.26C16.2426 20.2774 13.8342 21.3 11 21.3V22.7C14.2158 22.7 16.9774 21.5226 19.25 19.25L18.26 18.26ZM11 21.3C8.16578 21.3 5.75737 20.2774 3.73997 18.26L2.75003 19.25C5.02263 21.5226 7.78422 22.7 11 22.7V21.3ZM3.73997 18.26C1.72258 16.2426 0.7 13.8342 0.7 11H-0.7C-0.7 14.2158 0.477422 16.9774 2.75003 19.25L3.73997 18.26ZM0.7 11C0.7 8.16578 1.72258 5.75737 3.73997 3.73997L2.75003 2.75003C0.477422 5.02263 -0.7 7.78422 -0.7 11H0.7ZM3.73997 3.73997C5.75737 1.72258 8.16578 0.7 11 0.7V-0.7C7.78422 -0.7 5.02263 0.477422 2.75003 2.75003L3.73997 3.73997Z" fill="black" mask="url(#path-1-inside-1_185_18)"/>
</svg>
