<svg width="160" height="160" viewBox="0 0 160 160" fill="none" xmlns="http://www.w3.org/2000/svg">
<circle cx="80" cy="80" r="75" fill="#BBDEFB" stroke="#37474F" stroke-width="10"/>
<path d="M58.48 74.44V76.8H66.8V74.44H58.48ZM55.92 86.04V88.2H69.4V86.04H55.92ZM42.52 64.12V66.56H53.72V64.12H42.52ZM52.88 64.12V64.6C50.44 70.04 44.08 74.32 38.08 76.12C38.64 76.64 39.36 77.68 39.72 78.36C46.2 76.12 52.8 71.64 55.8 64.92L53.92 64L53.4 64.12H52.88ZM59.2 62.4L56.76 63.16C60 70.16 66.12 75.44 73.76 77.8C74.2 77.08 74.96 76.04 75.6 75.44C68.16 73.48 62.08 68.6 59.2 62.4ZM67.36 62.68C65.92 64.32 63.28 66.56 61.44 67.92L63.2 69.32C65.12 68 67.64 66.08 69.6 64.24L67.36 62.68ZM72.16 66.72C70.68 68.28 67.96 70.52 66.04 71.84L67.88 73.24C69.84 72 72.44 70.08 74.36 68.24L72.16 66.72ZM43.76 74.6V76.96H50.88V84.2H53.56V74.6H43.76ZM42.72 81.16C42.28 84.08 41.48 87.84 40.8 90.24L43.32 90.68C43.96 88.2 44.76 84.28 45.32 81.16H42.72ZM50.88 87.24V87.64C50.4 93.36 49.96 95.64 49.24 96.32C48.92 96.64 48.48 96.68 47.72 96.68C46.96 96.68 44.8 96.64 42.56 96.44C43.04 97.16 43.36 98.24 43.44 99.04C45.64 99.12 47.76 99.16 48.8 99.12C50.04 99 50.76 98.8 51.48 98.12C52.52 97.08 53.04 94.52 53.56 88.44C53.6 88.08 53.64 87.24 53.64 87.24H50.88ZM57.4 74.44V77.56C57.4 79.48 56.88 81.68 53.68 83.4C54.24 83.76 55.2 84.72 55.6 85.28C59.16 83.2 60 80.2 60 77.6V74.44H57.4ZM68.72 86.04V86.44C66.52 92.48 60.52 95.76 53.64 97.04C54.12 97.6 54.72 98.6 54.96 99.24C62.52 97.56 68.8 94 71.44 86.56L69.72 85.92L69.24 86.04H68.72ZM59.72 88.04L57.36 88.68C60 94.28 65.36 97.84 72.68 99.2C73.08 98.48 73.84 97.32 74.48 96.72C67.4 95.72 62.04 92.68 59.72 88.04ZM44.04 81.16L43.64 83.52H51.88V81.16H44.04ZM42.84 87.24L42.4 89.56H51.64V87.24H42.84ZM65.4 74.44V80.44C65.4 82.36 65.6 82.96 66.16 83.48C66.68 83.92 67.56 84.08 68.36 84.08C68.76 84.08 69.88 84.08 70.32 84.08C70.88 84.08 71.68 84.04 72.08 83.88C72.6 83.72 73.08 83.4 73.28 82.96C73.56 82.48 73.68 81.32 73.76 80.28C73.04 80.08 72.08 79.6 71.56 79.16C71.52 80.16 71.48 80.92 71.4 81.28C71.28 81.56 71.08 81.76 70.92 81.84C70.8 81.88 70.4 81.88 70.04 81.88C69.68 81.88 69.16 81.88 68.88 81.88C68.56 81.88 68.36 81.88 68.2 81.76C68.04 81.64 68.04 81.24 68.04 80.68V74.44H65.4ZM41.44 68.88C43.32 70.04 45.52 71.76 46.56 73L48.4 71.16C47.32 70 45.04 68.32 43.2 67.24L41.44 68.88ZM94.73 72.72V75H104.65V72.72H94.73ZM94.73 78.44V80.68H104.65V78.44H94.73ZM98.57 62.4C98.21 63.88 97.45 66.08 96.85 67.56L99.61 68.08C100.33 66.76 101.17 64.8 101.93 62.88L98.57 62.4ZM93.13 66.88V85.72H95.89V69.32H104.85V66.88H93.13ZM103.85 66.88V95.72C103.85 96.32 103.65 96.48 103.05 96.52C102.45 96.52 100.53 96.56 98.45 96.48C98.85 97.2 99.29 98.48 99.45 99.2C102.25 99.2 104.05 99.16 105.17 98.68C106.25 98.24 106.61 97.36 106.61 95.72V66.88H103.85ZM89.81 85.2L90.21 87.92C94.13 87.4 99.33 86.64 104.33 85.88L104.25 83.4C98.93 84.16 93.49 84.8 89.81 85.2ZM105.85 79C102.29 85.76 96.09 91.36 89.13 94.72C89.77 95.24 90.77 96.4 91.21 96.96C98.13 93.2 104.57 87.28 108.53 79.88L105.85 79ZM108.13 72.28V75.08H126.61V72.28H108.13ZM119.33 62.6V95.36C119.33 96.08 119.05 96.28 118.33 96.32C117.65 96.36 115.41 96.4 112.89 96.28C113.33 97.08 113.89 98.44 114.05 99.2C117.41 99.24 119.37 99.12 120.57 98.64C121.81 98.12 122.29 97.24 122.29 95.4V62.6H119.33ZM110.05 80.2C111.81 83.16 113.45 87.04 113.97 89.48L116.73 88.36C116.17 85.88 114.45 82.08 112.61 79.2L110.05 80.2Z" fill="black"/>
</svg>
